<svg xmlns="http://www.w3.org/2000/svg" viewBox="0 0 100 100">
  <defs>
    <linearGradient id="grad" x1="0%" y1="0%" x2="100%" y2="100%">
      <stop offset="0%" style="stop-color:#67e480;stop-opacity:1" />
      <stop offset="100%" style="stop-color:#4ec96d;stop-opacity:1" />
    </linearGradient>
  </defs>
  <!-- Background -->
  <rect width="100" height="100" fill="#000000"/>

  <!-- Kali Dragon simplified icon -->
  <path d="M 50 20 Q 55 25 60 30 L 65 35 Q 70 40 72 48 Q 73 55 70 62 L 65 70 Q 60 75 50 78 Q 40 75 35 70 L 30 62 Q 27 55 28 48 Q 30 40 35 35 L 40 30 Q 45 25 50 20 Z" fill="url(#grad)" stroke="#67e480" stroke-width="1.5"/>

  <!-- Dragon eye -->
  <circle cx="45" cy="42" r="3" fill="#000000"/>

  <!-- Dragon details -->
  <path d="M 50 20 L 52 15 L 54 20" stroke="#67e480" stroke-width="1.5" fill="none"/>
  <path d="M 72 48 L 78 50 L 72 52" stroke="#67e480" stroke-width="1.5" fill="none"/>
  <path d="M 50 78 L 48 85 L 52 85 Z" fill="#67e480"/>

  <!-- Terminal reference -->
  <rect x="20" y="82" width="60" height="12" rx="2" fill="none" stroke="#67e480" stroke-width="1"/>
  <text x="25" y="90" font-family="monospace" font-size="8" fill="#67e480">root@kali</text>
</svg>
